# xmcd CD database file
#
# Track frame offsets:
#	150
#	19238
#	43327
#	68933
#	87064
#	98350
#	125946
#	151078
#	177506
#
# Disc length: 2710 seconds
#
# Revision: 0
# Processed by: cddbd v1.5.2PL0 Copyright (c) Steve Scherf et al.
# Submitted via: CDex 1.70beta2
#
DISCID=720a9409
DTITLE=Mike Van Liew - Polyglot
DYEAR=2004
DGENRE=Jazz
TTITLE0=Monkey Business
TTITLE1=Polyglot
TTITLE2=Purloined Pendulum
TTITLE3=Padiddle
TTITLE4=Klezmation
TTITLE5=Parallel
TTITLE6=New York Samba
TTITLE7=Reinvention
TTITLE8=Song for Dad
EXTD=YEAR: 2004
EXTT0=
EXTT1=
EXTT2=
EXTT3=
EXTT4=
EXTT5=
EXTT6=
EXTT7=
EXTT8=
PLAYORDER=
